# Aspose.3D Wavefront OBJ Exporter
# Copyright 2004-2021 Aspose Pty Ltd.
# File created: 10/22/2021 19:23:55


#
# object obj_9598099
#

v 1.0 1.0 -1.0
v 1.0 -1.0 -1.0
v -1.0 -1.0 -1.0
v -1.0 1.0 -1.0
v 1.0 1.0 1.0
v -1.0 1.0 1.0
v -1.0 -1.0 1.0
v 1.0 -1.0 1.0
# 8 vertices

vn 0 0 -1.0
vn 0 0 -1.0
vn 0 0 1
vn 0 0 1
vn 1.0 0.0 0.0
vn 1.0 0.0 0.0
vn 0 -1.0 -0.0
vn 0 -1.0 0
vn -1.0 0 -0.0
vn -1.0 0 -0.0
vn 0 1 0
vn 0 1 0
# 12 vertex normals

g obj_9598099
s 1
f 1//1 2//1 3//1
f 3//2 4//2 1//2
f 5//3 6//3 7//3
f 7//4 8//4 5//4
f 1//5 5//5 8//5
f 8//6 2//6 1//6
f 2//7 8//7 7//7
f 7//8 3//8 2//8
f 3//9 7//9 6//9
f 6//10 4//10 3//10
f 5//11 1//11 4//11
f 4//12 6//12 5//12
#12 polygons

